<svg width="32" height="32" viewBox="0 0 24 24" fill="none" xmlns="http://www.w3.org/2000/svg">
<path d="M9.55164 1.49997L9.55164 19.7774L13.3604 21.0885L13.3604 5.76315C13.3604 5.041 13.6567 4.56152 14.132 4.72642C14.7534 4.91369 14.8742 5.57892 14.8742 6.29304L14.8742 12.4137C17.2449 13.6606 19.1114 12.4131 19.1114 9.12343C19.1114 5.76185 18.0171 4.26432 14.7972 3.06029C13.5272 2.6008 11.1734 1.82542 9.55164 1.49997Z" fill="#ffff"/>
<path d="M14.3503 18.4129L20.1076 15.8203C20.7589 15.5148 20.8585 15.0998 20.3314 14.8817C19.796 14.6596 18.8404 14.7232 18.1821 15.0222L14.3503 16.7324V14.0036L14.5698 13.912C14.5698 13.912 15.6789 13.4148 17.239 13.2008C18.796 12.9848 20.7055 13.2289 22.2063 13.9446C23.8969 14.6241 24.0864 15.6153 23.6587 16.3051C23.2247 16.9877 22.1726 17.4815 22.1726 17.4815L14.3503 21.0367" fill="#ffff"/>
<path d="M1.7099 18.7146C-0.0868737 18.1444 -0.386499 16.9395 0.43318 16.2435C1.18927 15.6079 2.47692 15.1295 2.47692 15.1295L7.79976 12.9675V15.4281L3.9729 16.9908C3.29503 17.267 3.1934 17.6557 3.7394 17.859C4.29515 18.0706 5.28142 18.0137 5.95967 17.7286L7.79976 16.9728V19.1695C7.68115 19.1921 7.54929 19.215 7.42893 19.2384C5.59431 19.5852 3.63972 19.4428 1.7099 18.7146Z" fill="#ffff"/>
<path fill-rule="evenodd" clip-rule="evenodd" d="M23.7661 20.9589C23.6149 21.1145 23.4164 21.2024 23.2027 21.2024C22.989 21.2024 22.784 21.1145 22.6326 20.9589C22.4831 20.8005 22.4004 20.5936 22.4004 20.3706C22.4004 19.9089 22.7591 19.5357 23.2027 19.5357C23.4164 19.5357 23.6149 19.6208 23.7661 19.7798C23.9156 19.9352 24 20.1456 24 20.3706C24 20.5936 23.9156 20.8005 23.7661 20.9589ZM22.5352 20.3705C22.5352 20.1807 22.6034 20.0065 22.7279 19.8775C22.8555 19.7456 23.0258 19.6745 23.2027 19.6745C23.3798 19.6745 23.5458 19.7456 23.6704 19.8775C23.796 20.0065 23.8638 20.1807 23.8638 20.3705C23.8638 20.7509 23.567 21.0597 23.2027 21.0597C23.0258 21.0597 22.8555 20.9894 22.7279 20.8592C22.6034 20.7279 22.5352 20.5557 22.5352 20.3705ZM23.5678 20.7168C23.5749 20.7383 23.5836 20.751 23.5959 20.7548L23.6071 20.7613V20.8142H23.4335L23.4303 20.8036L23.4185 20.7716C23.4165 20.7548 23.4142 20.7327 23.4118 20.6957L23.4041 20.5507C23.4021 20.4993 23.386 20.4694 23.3562 20.4495C23.3341 20.4419 23.304 20.4359 23.2591 20.4359H23.0181V20.8142H22.86V19.8849H23.2745C23.3422 19.8849 23.3991 19.8974 23.4427 19.9167C23.5301 19.9595 23.5749 20.0367 23.5749 20.1454C23.5749 20.1987 23.5622 20.2487 23.5403 20.2855C23.5213 20.3115 23.4989 20.3353 23.4744 20.3584L23.4809 20.3632C23.4975 20.3753 23.5139 20.3873 23.5236 20.405C23.5457 20.4305 23.5557 20.4731 23.5575 20.5279L23.5615 20.6463C23.5622 20.6766 23.5645 20.7002 23.5678 20.7168ZM23.3808 20.2599C23.4064 20.2427 23.4185 20.2084 23.4185 20.1561C23.4185 20.1009 23.4002 20.064 23.3643 20.0457C23.3422 20.0367 23.3147 20.0302 23.2779 20.0302H23.0181V20.2913H23.2636C23.3124 20.2913 23.3512 20.2808 23.3808 20.2599Z" fill="#515151"/>
</svg>
