<svg width="32" height="32" viewBox="0 0 22 22" fill="none" xmlns="http://www.w3.org/2000/svg">
<path fill-rule="evenodd" clip-rule="evenodd" d="M16.3724 22H12.9889C12.9025 22 12.8335 21.9308 12.8335 21.8443V0.138365C12.8335 0.0691824 12.8853 0 12.9716 0H16.3724C19.4798 0 22.0002 2.52516 22.0002 5.63837V16.3616C22.0002 19.4748 19.4798 22 16.3724 22ZM19.3935 12.1068C19.3935 10.8788 18.3922 9.87568 17.1666 9.87568C15.9409 9.87568 14.9569 10.8788 14.9396 12.1068C14.9396 13.3348 15.9409 14.3379 17.1666 14.3379C18.3922 14.3379 19.3935 13.3348 19.3935 12.1068Z" fill="#ffff"/>
<path d="M3.6665 7.33321C3.6665 8.34154 4.4915 9.16654 5.49984 9.16654C6.50817 9.16654 7.33317 8.34154 7.33317 7.33321C7.33317 6.32488 6.50817 5.49988 5.49984 5.49988C4.47623 5.49988 3.6665 6.3096 3.6665 7.33321Z" fill="#ffff"/>
<path fill-rule="evenodd" clip-rule="evenodd" d="M5.84992 0H10.8385C10.9282 0 11 0.0691824 11 0.15566V21.8443C11 21.9308 10.9282 22 10.8385 22H5.84992C2.6199 22 0 19.4748 0 16.3616V5.63837C0 2.52516 2.6199 0 5.84992 0ZM5.84994 20.2359H9.16968V1.76415H5.84994C4.77327 1.76415 3.76838 2.17925 3.01471 2.90566C2.24309 3.63208 1.83037 4.60063 1.83037 5.63837V16.3616C1.83037 17.3994 2.26104 18.3679 3.01471 19.0943C3.76838 19.8381 4.77327 20.2359 5.84994 20.2359Z" fill="#ffff"/>
</svg>
