<svg width="32" height="32" viewBox="0 0 24 24" fill="none" xmlns="http://www.w3.org/2000/svg">
<path fill-rule="evenodd" clip-rule="evenodd" d="M12.6 3C14.4514 3 15.9829 3.5916 17.3771 4.58655C17.4 4.58655 17.4 4.61345 17.4 4.64034C17.4 4.66723 17.3771 4.66723 17.3543 4.66723C15.5714 4.21008 12.8743 6.01176 12.6229 6.2H12.6H12.5771C12.3257 6.01176 9.62857 4.21008 7.84571 4.66723C7.82286 4.66723 7.8 4.66723 7.8 4.64034C7.8 4.61345 7.8 4.58655 7.82286 4.58655C9.21714 3.5916 10.7486 3 12.6 3ZM18.7348 19.8948C20.1748 18.4046 15.4137 13.1422 12.6035 11C12.6035 11 12.5803 11 12.5803 11.0233C9.7933 13.1422 5.00901 18.4046 6.47217 19.8948C8.0979 21.3385 10.2578 22.2 12.6035 22.2C14.9492 22.2 17.0859 21.3385 18.7348 19.8948ZM5.63014 6.24559C5.61918 6.24559 5.6137 6.25161 5.60822 6.25763C5.60274 6.26364 5.59726 6.26966 5.5863 6.26966C3.9863 8.0264 3 10.457 3 13.1282C3 15.3181 3.67945 17.3636 4.79726 18.976C4.79726 19 4.81918 19 4.8411 19C4.86301 19 4.86301 18.976 4.8411 18.9519C4.16164 16.6657 7.60274 11.1549 9.37808 8.84461L9.4 8.82055C9.4 8.80814 9.4 8.80213 9.397 8.79922C9.39417 8.79648 9.3887 8.79648 9.37808 8.79648C6.68219 5.86055 5.78356 6.1734 5.63014 6.24559ZM15.8001 8.81061L15.822 8.78652C18.5179 5.87182 19.4165 6.18497 19.548 6.23315C19.5572 6.23315 19.5625 6.23315 19.5672 6.23488C19.5737 6.23731 19.5791 6.24316 19.5919 6.25723C21.2138 8.01569 22.2001 10.4486 22.2001 13.1225C22.2001 15.3145 21.5206 17.362 20.4028 18.976C20.4028 19 20.3809 19 20.359 19V18.9519C21.0165 16.6635 17.5974 11.1472 15.822 8.8347C15.8001 8.8347 15.8001 8.81061 15.8001 8.81061Z" fill="#ffff"/>
</svg>
